<svg xmlns="http://www.w3.org/2000/svg" xml:space="preserve" viewBox="0 0 26.458 5.292">
	<path fill="#777a89" d="M-.004 3.297V1.256l.08.004c.12.005 1.055.035 1.157.037.098.001.115-.003.146-.04.009-.011.063-.11.12-.221a54.3 54.3 0 0 1 .277-.542c.157-.309.17-.332.186-.35a.146.146 0 0 1 .09-.04c.012 0 .637.175 1.39.387 1.02.29 1.376.388 1.404.388a.114.114 0 0 0 .117-.118.642.642 0 0 0-.043-.153c-.05-.14-.053-.167-.026-.213A.119.119 0 0 1 5 .331c.041 0 .017-.013.34.172a90.411 90.411 0 0 0 .634.36 199.674 199.674 0 0 1 .942.538l.065.035.033.016.637-.16c.35-.088.646-.16.657-.16.04 0 .071.013.103.045.039.039.048.07.042.152-.003.04-.002.058.002.058.02 0 .328-.114.346-.127a.118.118 0 0 0 .042-.097c0-.019-.01-.226-.024-.46L8.794.277 8.81.245c.03-.06.09-.085.157-.067l2.79.821c.093.027.13.03.164.012.015-.008.089-.086.196-.206a496.123 496.123 0 0 1 .292-.328 325.188 325.188 0 0 0 .337-.374.125.125 0 0 1 .085-.034c.04 0 0-.022.556.304a1744.152 1744.152 0 0 0 1.43.835.632.632 0 0 0 .093.048.84.84 0 0 0 .11-.074c.544-.402.505-.376.57-.369.053.007.052.006.238.175a128.578 128.578 0 0 0 .55.497l.238.216c.016.02.137.12.158.132.06.03-.05.073 1.795-.697.929-.386 1.7-.706 1.716-.71.037-.01.073-.003.114.021.038.022.06.052.07.089.004.013.019.267.033.564.028.578.026.567.063.603.028.028.057.04.137.059a225.15 225.15 0 0 0 .887.207c.085.02.122.024.154.014l.065-.016a22.984 22.984 0 0 0 .187-.043l.196-.046c.351-.08.349-.08.384-.12a.15.15 0 0 0 .027-.051c.004-.016.016-.219.027-.45.029-.604.031-.643.04-.668a.157.157 0 0 1 .073-.086c.031-.018.039-.02.08-.017.043.002.074.014.5.192a990.698 990.698 0 0 0 1.394.583l.37.154.252-.02a5.75 5.75 0 0 0 .278-.029c.042-.01.07-.044.098-.123a19.364 19.364 0 0 1 .056-.154 199.35 199.35 0 0 0 .226-.61c.08-.215.087-.23.115-.25.034-.025.071-.023.274.009l1.646.259a284.57 284.57 0 0 1 .497.078c.242.04.254.04.291.013a.128.128 0 0 0 .046-.09.572.572 0 0 0-.057-.141 1.04 1.04 0 0 1-.06-.14c-.004-.037.027-.091.064-.11.049-.026.057-.025.256.06l.17.071a13.065 13.065 0 0 1 .098.042 113.5 113.5 0 0 0 .787.33c.01.004.011.123.011 2.367v2.362H-.004Z" />
	<path fill="#323441" d="M-.004 3.897V2.454l.15-.133.22-.198c.181-.166.368-.33.387-.34a.164.164 0 0 1 .116 0 .173.173 0 0 1 .08.089c.01.028.009.039-.007.16a2.24 2.24 0 0 0-.016.169c0 .04.014.076.04.1a.172.172 0 0 0 .09.035c.035 0-.019.027.828-.422A604.03 604.03 0 0 0 3.32 1.15l.445-.235c.105-.056.133-.068.162-.07a.136.136 0 0 1 .114.042c.02.02.23.276.487.59.397.487.388.478.452.478.02 0 .387-.089 1.024-.248.546-.137 1-.25 1.01-.25.009 0 .3-.07.646-.157.696-.174.674-.17.726-.133.015.01.034.033.043.049.015.028.015.033.011.134-.002.058-.021.276-.042.485-.022.21-.04.399-.04.42 0 .048.016.084.048.108.02.016.199.09.216.09a.11.11 0 0 0 .035-.022l.195-.156a424.156 424.156 0 0 0 .978-.774c.131-.104.17-.129.226-.147a.429.429 0 0 1 .295.005c.104.04.167.1.26.25.39.628.969 1.547.976 1.549a.282.282 0 0 0 .064-.065 76.53 76.53 0 0 1 .462-.559 23.585 23.585 0 0 0 .092-.11c.055-.069.079-.089.116-.1a.15.15 0 0 1 .151.045c.038.038.04.054.045.225.003.102.007.168.013.19.02.072.097.117.171.1.029-.006.055-.022.148-.09l.656-.486a724.714 724.714 0 0 1 .477-.353 705.853 705.853 0 0 0 .804-.594c.054-.04.11-.08.124-.087.014-.007.078-.052.144-.1.353-.262.432-.32.454-.333a.11.11 0 0 1 .064-.014c.064 0 .06-.003.295.212a16.732 16.732 0 0 0 .138.124 16.59 16.59 0 0 1 .274.25l.202.182c.23.209.275.247.302.256.055.018.079.01.406-.126 2.927-1.221 3.094-1.29 3.13-1.29.063 0 .123.043.138.1.004.014.018.269.032.566.02.402.029.545.035.561.024.056.07.088.15.106l.496.116.278.066c.237.057.25.057.393.023l.383-.09a4.67 4.67 0 0 0 .312-.08.154.154 0 0 0 .076-.09.665.665 0 0 0 .013-.114 109.209 109.209 0 0 1 .036-.74c.013-.267.015-.28.052-.32a.146.146 0 0 1 .105-.043c.029 0 .059.01.19.065l.832.347c1.126.47 1.219.51 1.248.517.015.004.181.072.37.15.725.303.801.334.83.339.04.005.08-.01.119-.043l.126-.112.202-.183a72.62 72.62 0 0 0 .203-.183 32.297 32.297 0 0 1 .34-.308c.207-.188.218-.197.273-.201.036-.003.048-.001.072.01.015.008.118.081.228.163a196.821 196.821 0 0 0 .9.667 258.445 258.445 0 0 0 .546.405l.803.594.034.025v2.59H-.004Z" />
	<path fill="#181a26" d="M-.004 3.904V2.47l.022-.017.135-.12c.385-.346.59-.527.608-.536a.146.146 0 0 1 .095-.005c.026.01.064.048.077.077.012.027.012.03-.004.162a1.94 1.94 0 0 0-.017.171c0 .086.062.147.15.147.033 0 .096-.031.488-.242a29.91 29.91 0 0 1 .167-.089 20.619 20.619 0 0 0 .16-.085l.266-.14a24.152 24.152 0 0 0 .153-.082 12.407 12.407 0 0 1 .108-.058l.17-.09.478-.253.632-.335c.158-.086.226-.118.254-.118.05 0 .087.026.153.108l.151.186a61.82 61.82 0 0 1 .164.2l.461.562c.034.04.069.058.113.058.022 0 .366-.083 1.03-.25 2.116-.528 2.292-.571 2.319-.567a.139.139 0 0 1 .094.07c.016.03.016.021.004.186l-.023.229c-.067.66-.064.626-.055.659.016.064.04.082.185.14.065.025.082.03.094.024.009-.004.112-.084.231-.178a60.98 60.98 0 0 1 1.117-.88.498.498 0 0 1 .088-.041.31.31 0 0 1 .13-.018.38.38 0 0 1 .298.12c.043.044.074.09.255.38.6.962.82 1.314.84 1.335.012.012.133.2.269.419.136.217.25.4.254.404.003.005.009.006.012.003a.936.936 0 0 0 .015-.126c.03-.354.028-.345.065-.385.034-.038.01-.034.95-.139l.89-.099.058-.028a.816.816 0 0 1 .098-.04.456.456 0 0 1 .22.003l.062.015.451-.05c.248-.027.463-.053.477-.057a.162.162 0 0 0 .085-.073.167.167 0 0 0 .002-.11 1.34 1.34 0 0 0-.11-.137.824.824 0 0 1-.11-.14.165.165 0 0 1 .037-.149.151.151 0 0 1 .106-.035l.102.014.298.039a374.564 374.564 0 0 0 .572.075 26.138 26.138 0 0 1 .269.036 91.877 91.877 0 0 1 .595.079l.08.01.041-.02c.074-.034.14-.024.21.033a.123.123 0 0 0 .06.029l.1.013.15.02a.71.71 0 0 1 .184.034c.016.008.1.102.282.314a4.8 4.8 0 0 0 .27.303c.012 0 .06-.02.24-.105a23.044 23.044 0 0 1 .26-.12 16.43 16.43 0 0 1 .142-.066 237.917 237.917 0 0 0 .906-.42l.13-.06c.115-.054.133-.06.167-.06.06 0 .13.045.156.1.013.026.028.132.054.358.029.256.032.269.067.307.028.03.08.053.116.053.049 0 .007.024.73-.426l.431-.268a1876.612 1876.612 0 0 0 .594-.369c.539-.334.711-.44.727-.447.035-.016.097-.011.332.025a8.8 8.8 0 0 0 .091.013 30.837 30.837 0 0 1 .376.055 8.444 8.444 0 0 0 .2.03l.09.013a5.09 5.09 0 0 1 .22.033 4.992 4.992 0 0 1 .177.026 34.903 34.903 0 0 1 .403.06 30.837 30.837 0 0 1 .376.054 8.814 8.814 0 0 0 .2.03l.088.013a34.765 34.765 0 0 1 .4.058l.248.037.242.035a.19.19 0 0 1 .117.052c.07.067.075.174.012.242a1.29 1.29 0 0 1-.178.119c-.168.1-.202.128-.216.18-.017.06.005.13.052.167.014.01.206.09.478.2a2949.687 2949.687 0 0 1 3.054 1.218l.021.01v.757H-.004Z" />
	<path fill="#040406" d="M-.004 4.09V2.841l.054-.004a51.42 51.42 0 0 1 .728-.05c.803-.055.98-.064 1.012-.053.013.004.089.056.168.114a914.136 914.136 0 0 1 1.42 1.047c.7.516.625.465.685.465.062 0 .12-.037.143-.093.005-.013.032-.137.06-.276.027-.138.053-.26.057-.27a.162.162 0 0 1 .198-.096c.015.004.072.034.128.065a672.86 672.86 0 0 1 1.288.728c.063.035.12.064.128.064a.941.941 0 0 0 .138-.1l.919-.728a1571.042 1571.042 0 0 0 .71-.562l.737-.585a1.574 1.574 0 0 0 .199-.143 88.868 88.868 0 0 1 .219-.172l.297-.236A594.442 594.442 0 0 1 9.86 1.5c.16-.126.207-.147.338-.147a.29.29 0 0 1 .139.02.44.44 0 0 1 .173.116c.022.026.217.334.47.742a122.985 122.985 0 0 0 .599.952c.013.018.137.214.275.435s.257.41.264.418c.008.008.148.229.311.49.195.311.302.476.309.476.006 0 .07-.08.156-.196l.84-1.132c.127-.173.25-.334.272-.358a.422.422 0 0 1 .41-.11.45.45 0 0 1 .084.028c.045.022.041.019.426.378.61.569.752.7.757.7.002 0 .375-.357.83-.794.651-.627.832-.797.862-.813a.142.142 0 0 1 .083-.02c.031 0 .053.005.07.013.04.02.082.061.09.088.008.023.012.12.026.613.004.13.008.249.01.265a.169.169 0 0 0 .074.116c.034.024.038.025.089.024.05 0 .057-.002.125-.035a17.012 17.012 0 0 1 .193-.09 37.439 37.439 0 0 0 .341-.158.876.876 0 0 1 .15-.066c.008 0 .057-.022.193-.086l.1-.046.081-.038a32.405 32.405 0 0 0 .365-.17 99.646 99.646 0 0 1 .547-.252 41.603 41.603 0 0 1 .358-.166c.166-.08.187-.085.24-.074.06.013.102.052.12.111a.753.753 0 0 1 .017.102c.035.326.056.475.072.506a.175.175 0 0 0 .126.09c.066.01.042.023.522-.276l.337-.21a1530.123 1530.123 0 0 0 1.247-.774l.356-.22.06-.036.068.003a4.275 4.275 0 0 1 .419.057 4.503 4.503 0 0 1 .183.026l.088.013a23.44 23.44 0 0 0 .491.072 20.222 20.222 0 0 1 .308.046 61.19 61.19 0 0 1 .667.097 81 81 0 0 0 .801.12l.089.012a14.622 14.622 0 0 1 .374.06c.03.01.06.037.079.07.015.026.018.037.018.08 0 .053-.014.087-.045.116a2.457 2.457 0 0 1-.166.106c-.082.05-.16.1-.173.11a.169.169 0 0 0 .01.261c.024.02.063.036 1.07.437.305.12.567.225.583.232l.533.213a813.02 813.02 0 0 1 .923.368c.23.092.425.168.433.17l.015.003v.751H-.004Z" />
</svg>
